<svg version="1.2" xmlns="http://www.w3.org/2000/svg" viewBox="0 0 160.00000000000003 160" width="160" height="159.0062111801242">
	<style>
		.s0 { fill: #000000 } 
	</style>
	<g id="Layer 1">
		<g id="&lt;Group&gt;">
			<g id="&lt;Group&gt;">
				<path id="&lt;Compound Path&gt;" fill-rule="evenodd" class="s0" d="m131.92 125.41m-9.57-125.33l-84.85 18.32c-1.84 0.4-3.36 2.14-3.49 3.95v0.09l-0.01 0.09v114.6l0.01 0.09v0.08c0.13 1.81 1.66 3.56 3.49 3.95l84.85 18.33c1.93 0.41 3.51-0.8 3.51-2.7v-103h-45.48v18.59h34.1v5.76q0 3.77-2.67 6.41-2.66 2.63-6.49 2.63h-24.94v38.14h-17.8v-77.29q0-3.76 2.67-6.4 2.67-2.64 6.49-2.64h54.12v-36.3c0-1.9-1.58-3.11-3.51-2.7z"/>
			</g>
		</g>
	</g>
</svg>